<svg xmlns="http://www.w3.org/2000/svg" width="119" height="53" fill="none" fill-rule="evenodd" xmlns:v="https://vecta.io/nano"><rect width="119" height="52.889" fill="#e20010" rx="2"/><g fill-rule="nonzero"><g fill="#fff"><path d="M57.76 32.16c-.304.222-.913.4-1.566.4-1.218 0-1.762-.953-1.74-2.06.022-.9.587-1.95 2.088-1.95h1.218v3.613zM56.5 22.03c-1.435 0-2.74.42-4.067 1.086l-.348.177.805 1.84.457-.222c.935-.42 1.957-.7 2.85-.687 1.087.044 1.544.554 1.544 1.618v.62h-1.783c-2.87 0-4.654 1.55-4.72 3.967 0 2.283 1.87 4.255 4.48 4.255 2.1 0 3.87-.687 5.1-1.928V26.22c.022-3.147-2.218-4.2-4.306-4.2zm42.668 10.528v1.928s-.63.133-1.153.133c-2.414 0-3.85-1.153-3.85-3.856V19.37l3.023-.532v12.1c0 .93.26 1.485 1.522 1.596a4.67 4.67 0 0 0 .457.022zM85.9 26.818c.043-1.175.544-2.394 1.718-2.394 1.348 0 1.544 1.485 1.544 2.394H85.9zm2.392 5.718c-.826 0-1.392-.266-1.74-.687-.544-.598-.783-1.817-.718-3.125h6.48v-.3c-.065-4.344-1.5-6.317-4.676-6.317-3.545 0-4.937 3.325-4.958 6.45-.022 1.973.718 3.967 2.044 5.098.805.687 1.935 1.064 3.262 1.064.718 0 1.457-.1 2.13-.332 1.305-.42 2.262-1.13 2.262-1.13l-.848-1.773c-.152.155-1.457 1.064-3.24 1.064zm-6.676.022v1.906s-.565.1-1.153.1c-2.457 0-3.936-1.22-3.936-3.768V19.37l3.088-.5v3.37h1.98v2.283h-1.98v6.427c0 .842.26 1.574 1.544 1.618h.457zm-18.55-9.82l3.023-.5v12.257h-3.023V22.74zm1.544-5.386a1.89 1.89 0 0 1 1.37.576c.348.377.544.864.522 1.374 0 1.086-.848 1.95-1.914 1.95s-1.914-.864-1.914-1.95a1.94 1.94 0 0 1 1.935-1.95zm11.113 5.075l-.848 1.95s-.478-.155-1.24-.133c-.805.022-1.653.377-2.066.776v9.464h-3.09v-10.06c1.827-1.995 3.87-2.372 5.198-2.372.935 0 1.718.2 2.044.377z"/><path d="M37.45 13.222v.022h-.285v.043h-.285v.022h-.285v.044h-.22v.022H36.2v.043h-.176v.044h-.153v.022h-.176v.043h-.175v.022h-.176v.044h-.088v.022h-.13v.043h-.132v.022h-.153v.044h-.088v.022h-.132v.043h-.13v.022h-.154v.044h-.088v.022h-.1v.043h-.088v.044h-.1v.022h-.1v.043h-.087v.022h-.1v.044h-.088v.022h-.1v.043h-.1v.022h-.088v.044h-.1v.02h-.087v.044h-.1v.022h-.066v.044h-.1v.043H32.7v.022h-.088v.044h-.066v.02h-.1v.044h-.1v.022h-.066v.044h-.088v.02h-.066v.044h-.1v.022h-.065v.044h-.1v.02h-.066v.044h-.066v.022h-.065v.043h-.088v.044h-.088v.022h-.066v.044h-.066v.02h-.065v.044h-.088v.022h-.066v.043h-.066v.022h-.088v.044h-.065v.022h-.088v.043h-.066v.022h-.066v.044h-.066v.022h-.087v.043h-.066v.044h-.066v.022h-.066v.043h-.066v.022h-.065v.044H30.1v.022h-.066v.043h-.066v.022h-.066v.044h-.066v.022h-.065v.043h-.066v.022h-.044v.044h-.066v.043h-.066v.022h-.066v.044H29.4v.022h-.066v.043h-.066v.022h-.044v.044h-.066v.02h-.066v.044h-.065v.022h-.044v.044h-.066v.02h-.066v.044h-.066v.022h-.022v.043h-.065v.044h-.066v.022h-.088v.044h-.066v.02h-.022v.044H28.4v.022h-.065v.043h-.066v.022h-.044v.044h-.066v.022h-.022v.043h-.088v.022h-.022v.044h-.065v.022h-.066v.043h-.044v.044h-.066v.022h-.022v.043h-.066v.022h-.065v.044h-.044v.022h-.066v.043h-.044v.022h-.066v.044h-.022v.022h-.066v.043h-.065v.022h-.044v.044h-.066v.02h-.044v.044h-.066v.044h-.022v.022h-.066v.043H26.9v.022h-.022v.044H26.8v.02h-.044v.044H26.7v.022h-.022v.044H26.6v.02h-.022v.044h-.043v.022h-.066v.044h-.022v.043h-.066v.022h-.044v.044h-.066v.02h-.022v.044h-.044v.022h-.065v.044h-.044V18h-.066v.044h-.022v.022h-.044v.043h-.066v.022h-.022v.044h-.044v.022h-.065v.043h-.022v.044H25.7v.022h-.044v.043h-.066v.022h-.022v.044h-.044v.022h-.065v.043h-.022v.022h-.044v.044h-.022v.022h-.066v.043h-.044v.022h-.022v.044h-.088v.022h-.022v.043h-.043v.044h-.066v.022H25v.043h-.044v.022h-.022v.044h-.044v.022h-.022v.043H24.8v.022h-.044v.044h-.02v.02h-.044v.044h-.044v.022h-.022v.044h-.066v.043h-.044v.022h-.022v.044h-.044v.02h-.022v.044h-.044v.022h-.065v.044h-.022v.02h-.044v.044h-.022v.022h-.044v.043h-.044v.022h-.066v.044h-.022v.022h-.043v.043h-.022v.044h-.044v.022h-.022v.043h-.044v.022h-.022v.044h-.044v.022h-.022v.043h-.044v.022h-.044v.044h-.022v.022h-.043v.043h-.022v.022h-.044v.044h-.022v.022h-.044v.043h-.022v.044h-.044v.022h-.022v.043h-.066v.022H23.3v.044h-.02v.022h-.044v.043H23.2v.022h-.022v.044h-.044v.02h-.022v.044h-.044v.022h-.022v.044h-.044v.065h-.022v.044h-.044v.022h-.02v.043h-.044v.022h-.022v.044h-.044v.02h-.022v.044h-.044v.022h-.044V21h-.022v.065h-.044v.022h-.022v.043h-.043v.044h-.022v.022H22.5v.044h-.022v.02h-.044v.044H22.4v.022h-.044v.065h-.022v.044H22.3v.022h-.044v.043h-.022v.022h-.043v.044h-.022v.065h-.044v.044h-.022v.022h-.044v.065h-.022v.044h-.044v.022h-.022v.043h-.044v.066h-.022v.022h-.044v.043h-.022v.066h-.043v.02h-.044v.044h-.022v.044h-.044v.065h-.022v.022H21.6v.044h-.022v.065h-.044v.022h-.022v.044h-.044v.065h-.02v.022h-.044v.087h-.022v.022h-.044v.044h-.022v.065h-.044v.022h-.044v.065h-.022v.044h-.044v.065h-.022v.066h-.044v.022h-.02v.087h-.044v.022H21v.065h-.044v.066h-.022v.043H20.9v.066h-.022v.022h-.044v.065h-.022v.065h-.044v.088h-.043v.065h-.022v.022h-.044v.066h-.022v.065H20.6v.065h-.022v.066h-.044v.087h-.022v.066h-.044v.065h-.022v.066h-.044v.065h-.022v.087h-.043v.066h-.044v.087h-.022v.087h-.044v.066h-.022v.1h-.044v.087h-.022v.066h-.044v.152h-.022v.088h-.044v.1h-.02v.13h-.044v.174h-.022v.13H19.9v.24h-.022v.393h-.044v.37h.044v.327h.022v.175h.044v.13h.022v.13H20v.1h.02v.088h.044v.1h.022v.065h.044v.066h.022v.065h.044v.066h.022v.065h.044v.066h.022v.065h.044v.044h.043v.065h.022v.044h.044v.065h.022v.022h.044v.065h.022v.044h.044v.022h.022v.044h.044v.02h.022v.044h.044v.022h.022v.043h.043v.022h.044v.044h.022v.044h.044v.02h.022v.044h.044v.022h.022v.043h.044v.022h.022v.044h.044v.022h.02v.043h.044v.022h.066v.044h.022v.022h.088v.043h.022v.044h.066v.022h.044v.043h.065v.022h.022v.044h.066v.022h.044v.043h.066v.022h.022v.044h.087v.022h.066v.043h.088v.022h.066v.044h.066v.022h.1v.043h.066v.044h.066v.022h.132v.043h.175v.022h.176V30h.153v.022h.856V30h.22v-.044h.22v-.022h.13v-.043h.132v-.022h.088v-.044h.1v-.043h.132v-.022h.1v-.044h.066v-.022h.087v-.043h.088v-.022h.066v-.044h.088v-.022h.066v-.043h.065v-.02h.066v-.044h.066v-.022h.088V29.4h.066v-.022h.065v-.044h.066v-.043h.066v-.022h.066v-.044h.066v-.022h.065v-.043h.044v-.022h.066v-.044h.022v-.022h.066v-.043h.066v-.022h.044v-.044h.065v-.02h.066V28.9h.044v-.044h.066v-.022h.022V28.8h.066v-.022h.044v-.044h.065v-.02h.022v-.044h.066v-.022h.044v-.044h.066v-.02h.044v-.044h.066v-.022h.022v-.043h.065v-.022h.044V28.4h.022v-.044h.066v-.02h.044v-.044h.022v-.022h.088v-.043h.02V28.2h.066v-.044h.044v-.022h.022v-.043h.066v-.022h.044v-.044h.022v-.022h.066v-.043h.043v-.022h.022v-.044h.088v-.043h.022v-.022h.044v-.044h.066v-.022h.022V27.7h.044v-.022h.065v-.044h.022v-.022h.044v-.043h.022v-.022h.066v-.044h.044v-.02h.044v-.044h.066v-.022h.022v-.044h.043v-.043h.066v-.022h.022v-.044h.044v-.02h.022V27.2h.066v-.022h.044v-.044h.044v-.02h.065v-.044h.022v-.022h.044v-.043h.066V27h.022v-.044h.044v-.044h.066v-.02h.022v-.044h.043v-.022h.066v-.043h.044v-.022h.022v-.044h.066v-.022h.044v-.043h.066v-.022h.022v-.044h.043v-.022h.066V26.5h.022v-.022h.066v-.044h.044V26.4h.066v-.022h.044v-.044h.065v-.022h.022v-.043h.066v-.022h.044v-.044h.022v-.022h.066v-.043h.044v-.022h.065v-.044h.044v-.022h.066v-.043h.022v-.022h.066v-.044h.044v-.04h.066v-.022h.022v-.044h.065v-.022h.044v-.043h.066v-.022h.044v-.044h.066v-.02h.022v-.044h.066v-.022h.043v-.044h.022v-.02h.066v-.044h.044v-.044h.066v-.02h.044V25.4h.066v-.022h.022v-.044h.065v-.02h.044v-.044h.066v-.022h.022v-.05h.066v-.022h.044v-.044h.065v-.022h.044v-.043h.066v-.022h.022v-.044h.066v-.043h.044v-.022h.066v-.044h.022v-.022h.065v-.043h.044v-.022h.066v-.044h.044v-.022h.066v-.04h.022v-.022h.066v-.044h.043v-.022h.066v-.043h.022v-.022h.066v-.044h.044v-.043h.066v-.022h.044v-.044h.065v-.022h.022v-.043h.066v-.022h.066v-.044h.044v-.02h.066V24.2h.022v-.022h.087v-.044h.022v-.02h.066v-.044h.044v-.022h.066V24h.022v-.044h.066v-.022h.065V23.9h.044v-.02h.066v-.044h.044v-.022h.066v-.043h.066v-.022h.022v-.044h.065v-.022h.044v-.043h.066v-.022h.022v-.044h.088v-.044h.066v-.02h.022v-.044h.065v-.022h.066V23.4h.044v-.022h.066v-.044h.066v-.022h.022v-.043h.087v-.022h.066v-.044h.022v-.022h.066v-.043h.066v-.022h.044v-.044h.065v-.043h.066v-.022h.022v-.044h.088v-.022h.066v-.043h.066v-.022h.022v-.044h.065V22.8h.066v-.043h.066v-.022h.044v-.044h.066v-.02h.066v-.044h.065v-.022h.066v-.044h.044v-.043h.066v-.022h.066v-.044h.066v-.02h.065v-.044h.066v-.022h.066v-.044h.066v-.02h.066v-.044h.065v-.022h.066V22.2h.088v-.022h.066v-.044h.022V22.1h.1v-.02h.066v-.044h.066v-.022h.066v-.043h.066v-.022h.1v-.044h.066v-.022h.066v-.043h.066v-.022h.066v-.044h.1v-.022h.066V21.7h.088v-.022h.066v-.044h.1V21.6h.087v-.022h.088v-.044h.088v-.022h.066v-.043h.1v-.022h.132v-.044h.1v-.022h.13v-.043h.088v-.022h.132v-.044h.153v-.02h.154v-.044h.197v-.022h.176v-.044h.57v-.043h.066v.043h.307v.044h.263v.022h.1v.044h.1v.02h.088v.044h.065v.022h.1v.043h.066v.022h.066v.044h.044v.022h.065v.043h.066v.022h.022v.044h.066v.022h.044v.043H42v.044h.022v.022h.044v.043h.022v.022h.043v.044h.044v.022h.022v.043h.044v.022h.022v.044h.044v.022h.022v.043h.044v.066h.022v.02h.044v.044h.02v.066h.044v.043h.022v.066h.044v.02h.044v.066h.022v.065h.044v.044h.022v.065h.044v.066h.022v.065h.044v.066h.02v.1h.044v.065h.022v.088H43v.087h.022v.087h.044v.1h.022v.13h.044v.087h.044v.153h.022v.197h.043v.174h.022v.35h.044v.85h-.044v.262h-.022v.305h-.04v.175h-.022v.153h-.044v.13H43.1v.174h-.022v.13h-.044v.13H43v.1h-.044v.087h-.022v.1H42.9v.13h-.02v.1h-.044v.087h-.022v.1h-.044v.065h-.022v.1h-.044v.066h-.022v.087h-.044v.066h-.044v.1h-.022v.065h-.044v.1h-.02v.066h-.044v.065h-.022v.066h-.044v.065h-.022v.1h-.044v.066H42.3v.065h-.044v.066h-.022v.065H42.2v.022h-.043v.065h-.022v.088h-.044V29h-.022v.065h-.044v.022h-.022v.066h-.044v.065h-.022v.044h-.044v.065h-.022v.066h-.044v.043h-.022v.066h-.043v.065h-.022v.022h-.044v.066h-.044v.043h-.022v.066h-.044v.022h-.022v.087H41.5v.022h-.022v.065h-.044V30h-.022v.065h-.043v.022h-.022v.065h-.044v.044H41.3v.022h-.044v.065h-.022v.044H41.2v.044h-.044v.065h-.022v.022h-.044v.044h-.02v.065h-.044v.022h-.022v.065h-.044v.044h-.022v.022h-.044v.043h-.022v.066h-.044v.043h-.022v.022h-.044v.044h-.044v.065h-.02v.022h-.044v.044H40.6v.022h-.044v.065h-.022v.044H40.5v.022h-.022v.043h-.044v.044h-.022v.065h-.044v.022h-.022v.044h-.043v.022h-.022v.043h-.044v.066h-.044v.02h-.022v.044h-.044v.022h-.022v.044h-.044v.02h-.022v.044h-.044v.044h-.022v.065h-.043v.022h-.022v.044h-.044v.02h-.022v.044h-.044v.022h-.022v.043h-.044v.022h-.044v.044h-.022v.065h-.044v.022h-.02v.044h-.044v.043h-.022v.022h-.044v.044h-.022v.022h-.044v.043h-.022v.022h-.044v.044h-.022v.022h-.044v.043h-.022v.022h-.043v.044h-.044v.022h-.022v.043h-.044v.044h-.022v.022h-.044v.043h-.022v.022h-.044v.044h-.022v.022h-.044v.043H38.9v.022h-.043v.044h-.022v.022H38.8v.043h-.044v.022h-.022v.044h-.044v.02h-.022v.044h-.044v.044h-.022v.022h-.044v.043h-.022v.022h-.043v.044h-.022v.02h-.044v.044h-.022v.022h-.044v.044h-.022v.02h-.044v.044h-.044v.022h-.066v.043h-.02v.022h-.044v.044h-.022v.044h-.044v.02h-.022v.044h-.044v.022h-.022v.043h-.044v.022h-.022v.044h-.066v.022h-.043v.043h-.044v.022h-.022v.044h-.044v.022h-.022v.043h-.044v.044h-.022v.022h-.066v.043h-.044v.022h-.022v.044h-.043v.022h-.022v.043h-.044v.022H37.3v.044h-.066v.022h-.022v.043h-.044v.022h-.022v.044H37.1v.02h-.065v.044h-.022v.044h-.044v.022h-.022v.043h-.044v.022h-.066v.044h-.044v.02h-.022v.044h-.044v.022h-.022v.044h-.065v.02h-.044v.044h-.022v.022h-.044v.043h-.066v.022h-.022v.044h-.044v.044h-.022v.02h-.087v.044h-.022v.022h-.044v.043H36.2v.022h-.066v.044H36.1v.022h-.022v.043h-.044v.022h-.065v.044h-.022v.022h-.044v.043h-.066v.044h-.044v.022h-.022v.043h-.066v.022h-.044v.044h-.022v.022h-.065v.043h-.044v.022h-.022v.044h-.066v.022h-.044v.043h-.044v.022h-.066v.044h-.022v.022h-.043v.043h-.066v.044h-.022v.022h-.066v.043h-.044v.022h-.022v.044h-.066v.022h-.043v.043h-.066v.022h-.044v.044h-.066v.02h-.022v.044h-.044v.022h-.066v.044h-.022v.02H34.5v.044h-.044v.044h-.066v.02h-.044v.044h-.066v.022h-.022v.044h-.066v.02h-.043v.044h-.066v.022h-.022v.043h-.066v.022h-.044v.044h-.066v.022h-.066V37h-.043v.022H33.7v.044h-.022v.043h-.066v.022h-.066v.044H33.5v.022h-.065v.043h-.044v.022h-.066v.044h-.066v.022h-.066v.043h-.022v.022h-.066v.044h-.065v.022h-.044v.043h-.066v.044h-.066v.022H32.8v.043h-.044v.022H32.7v.044h-.066v.022h-.066v.043h-.066v.022h-.066v.044h-.044v.02h-.065v.044h-.066v.022h-.066v.044h-.066v.02h-.066v.044h-.066v.044h-.065v.02h-.066v.044h-.1v.022H31.7v.044h-.065v.02h-.066v.044h-.066v.022h-.1v.043h-.066v.022h-.087v.044h-.066v.022h-.1v.043h-.1v.022h-.065v.044h-.132v.044H30.7v.02h-.1v.044h-.13v.022h-.176v.043h-.24v.022h-.33v-.022h-.132v-.043h-.1v-.022h-.066v-.044h-.066v-.02h-.022v-.044h-.044v-.044H29.2v-.022h-.044V38.4h-.022v-.066H29.1v-.065h-.02v-.1h-.044v-.327h.044v-.175h.02v-.087h.044v-.1h.022v-.066h.044v-.065h.022v-.066h.044V37.2h.022v-.066h.044v-.087h.022v-.022h.044v-.065h.022v-.066h.043v-.043h.022v-.066h.044v-.02h.044V36.7h.022v-.044h.044V36.6h.022v-.044h.044v-.02h.022v-.066h.044v-.044h.022v-.02h.043v-.066h.022v-.043h.044v-.022h.022v-.066h.044v-.043H30v-.022h.044V36.1h.044v-.043h.022v-.066h.044v-.022h.022v-.043h.043v-.022h.022v-.044h.044v-.022h.022v-.065h.044v-.044h.022v-.022h.044v-.043h.022v-.022h.044v-.044h.022v-.043h.043v-.022h.044v-.044h.022v-.022h.044V35.4h.022v-.044h.044v-.022h.022v-.043h.044v-.022h.022v-.044h.044v-.02h.022v-.044h.043v-.044h.022v-.022h.044v-.043h.044v-.022h.022v-.044h.044v-.02h.022V34.9h.044v-.022h.022v-.044h.044v-.02h.022v-.044h.043v-.022h.022v-.043h.044v-.022h.022v-.044h.044v-.044h.022v-.02h.044v-.044h.044v-.022h.022v-.043h.044v-.022h.022V34.4h.043v-.022h.022v-.043h.044v-.022h.022v-.044h.044v-.022h.022v-.043h.044V34.2h.022v-.044h.044v-.043h.022v-.022h.043v-.044h.044v-.022h.022v-.043h.044v-.022h.022v-.044h.044v-.022h.022v-.043h.044v-.022h.022v-.044h.044v-.02h.022V33.7h.043v-.044h.022v-.022h.044V33.6h.066v-.022h.044v-.065h.022v-.044h.044v-.022h.022v-.044h.044v-.02h.022v-.044h.043v-.022h.022v-.043h.044v-.022h.022v-.044h.044v-.044h.022V33.1h.044v-.022h.044v-.043h.022v-.022h.044v-.044h.022v-.022h.043v-.065h.022v-.044h.044v-.022h.022v-.065h.044v-.044h.022v-.043h.044v-.022h.022v-.066h.044v-.043h.022v-.066h.044v-.022h.043v-.065h.022v-.066h.044v-.043h.022v-.066h.044v-.065h.022v-.044h.044v-.087h.022v-.1h.044v-.087h.022v-.088h.043v-.5h-.043v-.13h-.022v-.088H33.7v-.043h-.022v-.066h-.044v-.022h-.022V30.8h-.044v-.044h-.022v-.043H33.5V30.7h-.022v-.044h-.043v-.022h-.044V30.6h-.022v-.022h-.044v-.044h-.066v-.02h-.022v-.044h-.066v-.022h-.044v-.044h-.065v-.02h-.066v-.044h-.066v-.044h-.066v-.02h-.1v-.044h-.087V30.2h-.066v-.044h-.1v-.02h-.175v-.044h-.132v-.022h-.198v-.043H31.7V30h-.022v.022h-.614v.043h-.197v.022H30.7v.044h-.088v.02h-.1v.044h-.132v.022h-.1v.044h-.065v.02H30.1v.044h-.066v.044h-.1v.02h-.066v.044h-.065v.022h-.066v.044h-.066v.02h-.022v.044h-.066v.022h-.044v.043h-.066v.022h-.043v.044h-.066v.022h-.022v.043h-.044v.044h-.066v.022H29.2v.043h-.066v.022H29.1v.044h-.02v.022h-.044V31h-.044v.022h-.022v.044h-.066v.022h-.044v.043h-.022v.022h-.044v.044h-.022v.022h-.043v.043h-.022v.044h-.044v.022h-.022v.043h-.044v.022h-.044v.044h-.022v.022h-.044v.043h-.022v.022h-.044v.044h-.022v.065h-.043v.022h-.022v.044h-.044v.02h-.022v.044h-.044v.065h-.022v.044h-.044v.022h-.022v.044h-.044v.02h-.044V32h-.022v.065h-.043v.022h-.022v.066h-.044v.043h-.022v.066h-.044v.043h-.022v.066h-.044v.022h-.022v.065h-.044v.044h-.022v.065h-.044v.022h-.02v.066h-.044v.043h-.044v.066h-.022v.043h-.044v.066h-.022v.065h-.044v.066h-.022v.065h-.044v.066h-.022v.065h-.043v.066h-.022v.043h-.044v.066h-.022v.065h-.044v.066h-.044v.065h-.022v.065h-.044v.066h-.022v.065h-.044v.066h-.022v.065H26.9v.1h-.022v.066h-.044v.065H26.8v.1h-.044v.066h-.022v.065H26.7v.088h-.022v.065h-.044v.065H26.6v.1h-.022v.065h-.043v.1h-.022v.087h-.044v.1h-.022v.1h-.044v.13h-.022v.088h-.044v.1h-.022v.13h-.044v.24h-.022v.24h-.044v.262h-.02v.02h.02v.677h.044v.13h.022v.13h.044v.174h.022v.13h.044v.066h.022v.065h.044v.1h.022v.066h.044v.065h.022v.065h.043v.066h.022v.065h.044v.044h.044v.065h.022v.022h.044v.066h.022v.043h.044v.022h.022v.088h.044v.02h.022v.044h.043v.065h.066v.022h.022v.044h.044v.022h.022v.043h.044v.022h.044v.044h.022v.022h.044v.043h.022v.044h.043v.022h.022v.043h.066v.022h.044v.044h.066v.022h.022v.043h.088v.022h.02v.044h.066v.022h.044v.043h.066v.022h.066v.044h.066v.02h.065v.044h.1v.044h.088v.022h.1v.043h.153v.022h.22v.044h.33v.02h.548v-.02h.395V39.6h.24v-.022h.198v-.043h.175v-.022h.154v-.044h.132v-.044h.153v-.02h.132v-.044h.088v-.022h.1v-.043h.132v-.022h.1v-.044h.087v-.022h.1v-.043h.088v-.022h.066V39.1h.1v-.022h.1v-.043h.066v-.022h.088v-.044h.065v-.043h.1v-.022h.066v-.044h.1v-.022h.065v-.043h.066v-.022h.066v-.044h.1v-.022h.066v-.043h.065v-.022h.066v-.044h.066v-.02h.066v-.044h.066V38.5h.1v-.022h.066v-.043h.066V38.4h.066v-.044h.066v-.022h.022v-.043h.065v-.022h.066v-.044h.088v-.02h.066v-.044h.066v-.022h.065v-.044h.066v-.02h.022v-.044h.066v-.044h.088v-.02h.066v-.044h.065V37.9h.022v-.044h.066v-.02h.066V37.8h.066v-.022h.044v-.043h.066v-.022h.065v-.044h.044v-.022h.066v-.043h.066v-.022h.022v-.044h.066v-.043h.065v-.022h.044v-.044h.066v-.022h.044v-.043h.066v-.022h.066v-.044h.022v-.022h.065v-.043h.044V37.2h.066v-.044h.066v-.022h.044v-.043h.066v-.044h.022v-.022h.065v-.043H36v-.022h.066v-.044h.022v-.022h.066v-.043h.044v-.022h.066v-.044h.043v-.02h.066v-.044h.022v-.02h.066v-.044h.044v-.02h.022V36.6h.066v-.044h.043v-.02h.066v-.044h.022v-.022h.088v-.044h.022v-.02h.066v-.044h.044v-.022h.022v-.043h.065v-.022h.044v-.044h.022v-.022h.066v-.043h.044v-.022h.066V36.1h.044v-.043h.022v-.022h.065v-.044h.044v-.022h.022v-.043h.066v-.022h.044v-.044h.066v-.022h.022v-.043h.044v-.022h.065v-.044h.044v-.022h.022v-.043h.066v-.022h.044v-.044h.022v-.043h.044v-.022h.066v-.044h.02v-.022h.044v-.043h.066V35.4h.044v-.044h.022v-.022h.066v-.043h.044v-.022h.022v-.044h.043v-.02h.066v-.044h.022v-.044h.044v-.022h.066v-.043h.022v-.022h.044v-.044h.044v-.02h.065V34.9h.022v-.022h.044v-.044h.022v-.02h.066v-.044h.044v-.022h.022v-.043h.044v-.022h.066v-.044h.043v-.044h.022v-.02h.044v-.044h.022v-.022h.066v-.043h.044v-.022h.022V34.4h.044v-.022h.066v-.043h.02v-.022h.044v-.044h.022v-.022h.044v-.043h.066V34.2h.044v-.044h.022v-.043h.044v-.022h.022v-.044h.065v-.022h.044v-.043h.022v-.022h.044v-.044h.022v-.022h.044v-.043h.066v-.022h.044v-.044h.022v-.02h.043V33.7h.022v-.044h.044v-.022h.066V33.6h.022v-.022h.044v-.044h.022v-.02h.044v-.044h.022v-.022h.044v-.044h.065v-.02h.044v-.044h.022v-.022h.044v-.043h.022v-.022h.044v-.044h.022v-.044h.044v-.02h.022V33.1H41v-.022h.044v-.043h.022v-.022h.044v-.044h.044v-.022h.022v-.043h.044v-.022h.022v-.044h.044v-.022h.022v-.043h.043v-.022h.022v-.044h.044v-.043h.022v-.022h.044v-.044h.022v-.022h.044v-.043h.022V32.5h.044v-.044h.044v-.022h.022V32.4h.043v-.022h.022v-.044h.044v-.022h.022v-.043h.044v-.044h.022v-.022h.044v-.043h.022v-.022h.044v-.044H42v-.022h.044v-.043h.022v-.022h.043v-.044h.044v-.02h.022V31.9h.044v-.066h.022v-.02h.044v-.044h.022v-.044h.044v-.02h.022v-.044h.044v-.022h.02v-.044h.044v-.02h.022v-.044h.044v-.065h.044v-.022h.022V31.4h.044v-.022h.022v-.043h.044V31.3h.022v-.087h.044V31.2h.02v-.044h.044v-.022h.022v-.043H43v-.022h.022v-.066h.044v-.043h.022v-.022h.044v-.044h.044v-.022h.022v-.065h.043v-.044h.022v-.043h.044v-.066h.022v-.022h.044V30.6h.022v-.022h.044v-.065h.022v-.044h.044v-.022h.022v-.044h.044v-.065h.022v-.044h.043v-.02h.044v-.066h.022v-.044h.044v-.02h.022v-.066h.044v-.043h.022V30h.044v-.066h.022v-.043h.044v-.066h.02v-.043H44v-.022h.022v-.066h.044v-.043h.022v-.066h.044v-.022h.044v-.043h.022v-.066h.044v-.022h.022v-.065h.044v-.044h.02v-.065h.044v-.044h.022v-.065h.044v-.022h.022v-.066h.044v-.043h.022v-.066h.044v-.02h.044v-.088h.022v-.065h.043v-.022h.022v-.065h.044v-.044h.022v-.066h.044v-.065h.022v-.022h.044v-.065h.022v-.088h.044v-.02h.022v-.066h.044V28.2h.022v-.044h.043v-.065h.044v-.066h.022v-.065h.044v-.022h.022v-.087h.044v-.066h.022V27.7h.044v-.066h.022v-.065h.044v-.066h.02v-.02h.044v-.066h.022v-.087h.044v-.066h.022V27.2h.044v-.066h.044v-.065h.022v-.065h.044v-.066h.022v-.065h.044v-.1h.02v-.066h.044v-.065h.022v-.066h.044V26.5h.022v-.066h.044v-.065h.022v-.1h.044v-.066h.044v-.087h.022v-.066h.043v-.1h.022v-.065h.044v-.1h.022v-.066h.044v-.087h.022v-.065h.044v-.1h.022v-.1h.044v-.087h.022v-.1h.044v-.087h.022v-.1h.043v-.1h.044v-.088h.022v-.1h.044v-.13h.022v-.13h.044v-.1h.022v-.13h.044V24h.022v-.13h.044v-.175h.02v-.175h.044v-.152h.022v-.175h.044v-.196h.022v-.262h.044v-.284h.044v-.436h.022V21h-.022v-.633h-.044v-.284h-.044v-.196h-.022V19.7h-.044v-.196h-.022v-.196h-.044v-.175h-.02v-.1h-.044v-.087h-.022v-.13h-.044v-.1h-.022v-.1h-.044v-.13h-.022v-.088h-.03v-.1h-.022v-.1h-.044v-.065H46.5V18h-.022v-.087h-.044v-.065h-.022v-.066h-.044v-.087h-.022v-.087h-.044v-.066h-.022v-.065h-.044v-.066h-.022v-.065h-.044v-.088h-.022v-.065h-.043v-.022h-.022v-.065h-.044v-.044h-.044v-.065h-.022v-.066h-.044v-.022h-.022v-.065h-.044v-.087h-.022v-.022h-.044v-.066h-.02v-.043h-.044v-.066H45.7v-.022h-.044v-.043h-.022v-.066H45.6v-.02h-.044v-.044h-.022v-.022H45.5v-.087h-.022v-.022h-.044V16.2h-.02v-.02h-.044v-.066h-.022v-.044h-.044v-.02h-.022v-.044h-.044v-.022h-.022v-.065h-.044v-.044h-.022v-.022h-.044V15.8h-.043v-.044h-.022v-.022h-.044v-.043H44.9v-.022h-.022v-.044h-.044V15.6h-.022v-.043h-.044v-.022h-.022v-.044h-.044v-.022H44.7v-.043h-.043v-.022h-.022v-.044h-.044v-.043h-.044v-.022h-.022v-.044h-.066v-.022h-.044v-.043h-.022v-.022h-.065v-.044h-.044v-.022h-.022v-.043h-.066v-.022h-.044v-.044h-.044v-.02h-.066v-.044H44v-.022h-.044v-.044h-.02v-.043h-.066v-.022h-.066v-.044h-.044v-.02h-.066v-.044h-.066v-.022h-.043v-.044h-.066v-.02h-.022v-.044h-.066v-.022h-.066V14.5h-.044v-.02h-.066v-.044H43.2V14.4h-.066v-.043h-.066v-.044H43v-.022h-.066v-.044h-.065v-.02h-.066v-.044h-.066v-.022h-.066v-.043h-.088v-.022h-.066v-.044h-.087v-.022h-.066v-.043h-.1v-.022h-.066v-.044h-.1v-.043H42v-.022h-.066v-.044h-.1V13.8h-.087v-.043h-.1v-.022h-.1v-.044h-.13v-.022H41.3v-.043h-.1v-.022h-.13v-.044h-.132v-.022h-.132v-.043H40.6v-.022h-.132v-.044h-.175v-.043h-.198v-.022h-.197V13.3h-.22v-.022h-.285v-.043h-.307v-.022z"/></g><g fill="#d10010"><path d="M29.723 37.187v.115h.2v-.115h-.2zm-.2.115v.115h.2v-.115h-.2zm-.1.115v.115h.2v-.115h-.2zm-.2.154v.115h.2v-.115h-.2zm-.1.192v.115h.2v-.115h-.2zm-.2.308v.115h.2v-.115h-.2z"/><path d="M28.882 37.146h1v1h-1z"/><path d="M29.708 36.32h1v1h-1z"/><path d="M29.858 36.36v.083h-.043v.04h-.022v.124h-.043v.124h-.022v.082h-.043v.124h-.022v.124h-.043v.124h.043v-.04h.022v-.124h.043v-.165h.022v-.042h.043V36.7h.022v-.124h.043v-.082h.022v-.124zm-.968.795v.065h.02v-.022h.044v-.043z"/></g></g></svg>