<?xml version="1.0" encoding="UTF-8"?>
<svg width="106px" height="47px" viewBox="0 0 106 47" version="1.1" xmlns="http://www.w3.org/2000/svg" xmlns:xlink="http://www.w3.org/1999/xlink">
    <!-- Generator: sketchtool 62 (101010) - https://sketch.com -->
    <title>B8E09BB3-611A-495F-AE2F-0134342427CA</title>
    <desc>Created with sketchtool.</desc>
    <g id="Symbols" stroke="none" stroke-width="1" fill="none" fill-rule="evenodd">
        <g id="Bannière-mobile-Airtel-Copy" transform="translate(-47.000000, -70.000000)" fill-rule="nonzero">
            <g id="Group-2" transform="translate(47.000000, 70.000000)">
                <g id="Logo-Orange-Money">
                    <rect id="Rectangle" fill="#000000" x="0" y="0" width="106" height="47" rx="2"></rect>
                    <g id="Group" transform="translate(13.361345, 13.301887)">
                        <g transform="translate(0.000000, 0.901961)" id="Path">
                            <path d="M9.60975509,6.73887917 C9.50373263,6.688605 9.41018347,6.70517262 9.3203196,6.70517262 C7.74274006,6.70403004 6.16516057,6.70403004 4.58758107,6.70431568 C4.17142892,6.70431568 3.76888393,6.65175633 3.38986797,6.45751522 C2.49236272,5.99704955 2.01412793,5.01556067 2.20179327,4.00036526 C2.37896977,3.04115697 3.18320931,2.30275513 4.16405837,2.2010642 C4.29502723,2.18763871 4.42741352,2.17821232 4.55923283,2.17821232 C8.02508852,2.17706972 11.4909442,2.17821232 14.9570834,2.17621156 C15.5529634,2.17592712 16.0946983,2.32789222 16.551105,2.72837167 C17.0885875,3.19997765 17.3349819,3.80383896 17.3346501,4.51624678 C17.3343668,5.3777632 17.3346501,6.23927963 17.3346501,7.10079604 C17.3346501,9.16060867 17.3346501,11.2201357 17.3346501,13.2799484 C17.3346501,13.8986633 17.3329493,14.5173784 17.3349819,15.1358079 C17.3366346,15.6605445 17.2059492,16.1421481 16.8921341,16.567479 C16.330272,17.3284472 15.3766373,17.6515158 14.464391,17.389576 C13.5844617,17.1370625 12.9500282,16.3575273 12.8678182,15.4248843 C12.8559119,15.292629 12.8505257,15.1592311 12.8505257,15.0261188 C12.8493918,13.4364838 12.8499587,11.8465633 12.8491084,10.2566427 C12.8491084,10.1666633 12.863566,10.0729706 12.8179253,9.97299353 C12.7059497,10.01327 12.6484028,10.0998215 12.5798001,10.1686629 C9.67779085,13.0919915 6.77549815,16.0150345 3.87632375,18.9412196 C3.53699534,19.283998 3.14607311,19.517373 2.67407495,19.6159218 C1.32639966,19.8975714 0.0289007598,18.8552392 0.00055252087,17.4701288 C-0.0133381162,16.7879998 0.234992457,16.223558 0.710675908,15.7445252 C3.60304673,12.8334795 6.49258273,9.91986286 9.38211871,7.00624634 C9.45837545,6.92940684 9.54767245,6.86370764 9.60975509,6.73887917" fill="#FFFFFF"></path>
                            <path d="M24.0416168,9.71753797 C24.1603958,9.66469289 24.213974,9.58756782 24.2769071,9.52415378 C27.1956417,6.58425754 30.114093,3.64464695 33.0299929,0.702179874 C33.4617366,0.266565634 33.9748398,0.0237642539 34.5848938,0.00148365669 C35.4875018,-0.0316515904 36.3243417,0.492799391 36.6979716,1.31718149 C37.0758536,2.15013304 36.9159696,3.13990572 36.295143,3.80803799 C36.2367457,3.87088071 36.174663,3.93029563 36.1142812,3.99142444 C33.2247453,6.90504101 30.3354928,9.8189432 27.4448228,12.7311315 C27.385008,12.7914033 27.3084679,12.8351077 27.2211552,12.9005211 C27.3441866,12.9893579 27.4297982,12.9647921 27.507756,12.9647921 C29.1706636,12.9667917 30.8335714,12.9650778 32.496479,12.9667917 C33.5416786,12.9676486 34.4167888,13.6597753 34.6724898,14.682112 C35.0180549,16.0646517 33.9921322,17.4366223 32.5781219,17.4823261 C32.5316308,17.4837544 32.4848563,17.4831831 32.4383651,17.4831831 C28.9104268,17.4831831 25.382205,17.4863251 21.8542666,17.4811835 C20.8946787,17.4797552 20.1939103,17.0347147 19.765285,16.1669139 C19.6212759,15.8749809 19.5566419,15.5601961 19.5563584,15.2356991 C19.554374,11.633098 19.5484209,8.03049681 19.5586262,4.42818128 C19.562028,3.11619688 20.6304732,2.12299642 21.8987734,2.18184004 C23.1835155,2.24182628 24.0552239,3.30843845 24.045302,4.48588233 C24.0316949,6.05980656 24.0419002,7.63401645 24.0416168,9.20822634 L24.0416168,9.71753797 Z" fill="#FF6600"></path>
                        </g>
                        <path d="M50.0577493,14.2675678 C49.8037491,15.0011137 49.5491819,15.7340881 49.2963156,16.4693479 C49.0071636,17.3114401 48.7219803,18.1552463 48.4322613,18.9973387 C48.292221,19.4058163 48.2905201,19.4052451 47.8437518,19.4069589 C47.6572204,19.4075302 47.4689882,19.3892487 47.2847245,19.4115293 C47.0137154,19.4446645 46.9093939,19.3178365 46.826617,19.0727499 C46.3248532,17.5919471 45.8060804,16.1180001 45.2929774,14.6417676 C45.2527228,14.5275082 45.233446,14.404108 45.1166513,14.2767087 C45.0384101,14.4383858 45.0690262,14.5892083 45.0684592,14.7314613 C45.0661914,16.1568482 45.0684592,17.5816639 45.0656244,19.0070508 C45.0650574,19.3989607 45.0610887,19.401246 44.6908607,19.4063876 C44.396039,19.4103867 44.1000834,19.4103867 43.8052617,19.4063876 C43.4418373,19.401246 43.4412703,19.3983895 43.4333328,19.0521832 C43.431065,18.9270692 43.4327658,18.801955 43.4327658,18.6768409 L43.4327658,12.1451981 C43.4327658,12.035509 43.4378686,11.9258199 43.4327658,11.8161309 C43.4265293,11.6624518 43.4854935,11.5836128 43.6470785,11.5841841 C44.31553,11.5864693 44.9839815,11.5887545 45.651866,11.5813276 C45.8605091,11.5790425 45.8990626,11.7150113 45.9512234,11.8709754 C46.2834648,12.8644616 46.6208088,13.8550911 46.9564519,14.8480059 C47.1469521,15.4101626 47.3357514,15.9728905 47.5251177,16.5356184 C47.5591355,16.6355954 47.5778454,16.7429993 47.6702606,16.817268 C47.8006626,16.6487353 47.8273098,16.4419255 47.889109,16.2511123 C48.3540201,14.8074439 48.8206321,13.3654893 49.2702352,11.9178219 C49.3484764,11.6658796 49.4539318,11.5659026 49.7243741,11.5761859 C50.3140174,11.5984665 50.9053616,11.5921823 51.495572,11.5790425 C51.7416346,11.5733295 51.8131039,11.6635944 51.8125053,11.9041106 C51.8051347,14.3012743 51.8045678,16.6972955 51.8131039,19.0933166 C51.8142061,19.3464015 51.7257597,19.42067 51.4904694,19.4103867 C51.1644645,19.3966755 50.8378928,19.4115293 50.5113212,19.4058163 C50.1949548,19.4001033 50.1875843,19.3961042 50.1870173,19.0544685 C50.1836155,17.9735738 50.1858833,16.8932505 50.1858833,15.812356 L50.1858833,14.2709956 L50.0577493,14.2675678 Z M49.3255256,4.16003103 C49.334597,3.56988086 49.2416148,3.03457522 48.9881816,2.53868911 C48.6168197,1.81371275 48.015837,1.48293158 47.2101801,1.49092974 C46.4198312,1.49892791 45.8239512,1.83770725 45.4900089,2.55297154 C45.0165933,3.56645308 45.005821,4.60907076 45.4605267,5.63454953 C45.8001387,6.4012306 46.4408089,6.75829144 47.2464658,6.75548536 C48.0509888,6.75314977 48.6769179,6.38637686 49.02957,5.62598007 C49.2495523,5.15123196 49.3436685,4.64849028 49.3255256,4.16003103 M43.4392973,4.13375135 C43.4239892,3.0162937 43.7284493,2.01595203 44.4694723,1.15614949 C45.9248708,-0.533748114 49.7053921,-0.585736173 50.7769554,2.45070932 C51.2095496,3.67557086 51.1987772,4.91242966 50.6493884,6.10301337 C50.029129,7.44784737 48.9445253,8.12426345 47.4879927,8.20653026 C47.0066396,8.23338124 46.5286884,8.20081729 46.0598085,8.06199203 C44.5681242,7.61866528 43.5356813,6.26069144 43.4404312,4.6027865 C43.4313598,4.44739361 43.4392973,4.29085813 43.4392973,4.13375135 M69.7284902,4.95339168 C69.7250885,5.24932371 69.7449323,5.51154921 69.828276,5.76806172 C70.0159415,6.34735725 70.3963747,6.66556988 70.9293217,6.67699583 C71.4747417,6.68785048 71.939653,6.36392487 72.1307201,5.81605069 C72.3229211,5.26417745 72.2974077,4.70887642 72.0893316,4.1678578 C71.8925948,3.65654666 71.5166972,3.40631842 70.9820494,3.40003414 C70.458174,3.39432118 70.0749057,3.65426147 69.8673966,4.15814575 C69.7591063,4.42208514 69.7165839,4.69802176 69.7284902,4.95339168 M72.2140638,3.00869546 C72.2707603,2.35455997 72.2707603,2.35455997 72.806542,2.35398868 C73.0236895,2.35398868 73.241971,2.36598592 73.4585515,2.35170349 C73.6915741,2.33627846 73.7471367,2.44311107 73.7448687,2.65791888 C73.7352304,3.37832484 73.7414671,4.09873082 73.7414671,4.8191368 C73.7414671,5.72692831 73.7289938,6.63471983 73.7443018,7.54251134 C73.7709491,9.14157262 72.9426136,9.93224817 71.5535499,10.1327736 C70.8380403,10.2361784 70.1264996,10.2053284 69.4529454,9.89397128 C68.9018557,9.63917271 68.5129178,9.24040709 68.3672079,8.62911892 C68.3207167,8.43373523 68.3655069,8.33318689 68.5877571,8.34118505 C68.8667037,8.3514684 69.1479184,8.35946657 69.426298,8.33889986 C69.71545,8.31719056 69.8895083,8.3971722 70.0510932,8.67425141 C70.2994237,9.09872539 70.7575313,9.15756901 71.2060004,9.1061522 C71.6748803,9.05187893 72.0116574,8.79879425 72.1658718,8.3320443 C72.2872023,7.96584269 72.2526175,7.59107162 72.2418451,7.21972833 C72.0893316,7.13346242 72.0451083,7.28028585 71.9804743,7.34541375 C71.1821879,8.14694394 69.2443023,8.1149513 68.5560071,6.76383303 C67.9896092,5.65094576 67.9703324,4.49749638 68.5554401,3.38346652 C69.0798826,2.38312484 70.2552005,1.95065273 71.3165586,2.3054284 C71.6629741,2.42083047 71.9288806,2.6522059 72.2140638,3.00869546 M59.4819059,5.35507085 C59.1026064,5.46818773 58.7686642,5.52817395 58.4313202,5.56930737 C58.1841236,5.60015743 57.9414625,5.65785846 57.7231812,5.78297259 C57.4550069,5.93665157 57.3172343,6.24686604 57.371663,6.5382277 C57.4283595,6.83873011 57.6058195,7.01011932 57.935226,7.0809602 C58.1659806,7.13066307 58.3961684,7.12837788 58.6280569,7.08495927 C59.126419,6.9918378 59.4320129,6.68562242 59.4966469,6.18345204 C59.5306649,5.92236915 59.5391693,5.65785846 59.4819059,5.35507085 M61.2576396,8.02131566 C60.7745856,8.02131566 60.3272503,8.01503139 59.8804821,8.02360085 C59.5913301,8.02931382 59.7030221,7.73281048 59.5414373,7.61055285 C59.1524993,7.86706536 58.7329454,8.08587226 58.2498915,8.15214275 C57.7503954,8.22069844 57.2599709,8.21041509 56.7859883,8.01731658 C56.1436173,7.75566239 55.7835947,7.19236319 55.7892643,6.46795813 C55.794934,5.74241047 56.1260413,5.24595306 56.7837205,4.97630071 C57.3535202,4.74378268 57.9635742,4.72835765 58.5600211,4.63923527 C58.7607267,4.6089565 58.9597313,4.57810645 59.1479637,4.50498038 C59.4274773,4.39529129 59.513656,4.25875122 59.5159238,3.97481643 C59.5176247,3.70287889 59.4359818,3.46464788 59.1678075,3.36981251 C58.7783026,3.23155856 58.3757576,3.22356039 57.9868198,3.38238107 C57.7725071,3.46978956 57.6392704,3.64803433 57.5910784,3.87312549 C57.5457212,4.08564812 57.4249577,4.13706487 57.224819,4.12849543 C56.8999482,4.11364169 56.5733766,4.13078061 56.2473718,4.12278244 C55.9803314,4.11535558 55.9695591,4.09307497 56.0166171,3.81199668 C56.1277423,3.14929173 56.5285864,2.71967612 57.1238994,2.46944787 C57.7985874,2.18608438 58.5084274,2.14837875 59.2267718,2.22664649 C59.5816918,2.26549471 59.9337768,2.32605224 60.2597816,2.4854442 C60.7955633,2.74709839 61.0943537,3.16357418 61.089818,3.78114662 C61.0852823,4.48498496 61.089818,5.18825202 61.0892511,5.89209038 C61.0881171,6.59078706 61.0609028,7.29119763 61.2576396,8.02131566 M76.0368239,4.5566828 C76.7835166,4.5566828 77.5234055,4.5561115 78.2627277,4.5566828 C78.399933,4.5566828 78.4509599,4.49669658 78.4333841,4.35387222 C78.3823572,3.9476798 78.0569193,3.5569124 77.6600441,3.44151033 C76.8606238,3.20899231 76.1774312,3.65917464 76.0368239,4.5566828 M78.0240354,5.57759118 C77.4655752,5.57759118 76.9065479,5.5730208 76.3475206,5.57930508 C75.9926006,5.58273286 75.9960024,5.58958843 76.0538329,5.91808441 C76.1428463,6.42082609 76.388909,6.79788235 76.9003112,6.92756686 C77.4797492,7.07439028 78.0325399,7.00126421 78.4243125,6.50994848 C78.5978038,6.29285548 78.7684602,6.23743964 79.0116882,6.24886558 C79.2441437,6.25914893 79.4771661,6.25457856 79.7101887,6.25115078 C79.9171308,6.247723 79.9443452,6.34598614 79.8757424,6.51737535 C79.5678806,7.285199 79.0547774,7.83878615 78.2468525,8.0678764 C77.6362315,8.24040819 77.0176729,8.24269339 76.4087528,8.0667338 C75.5446984,7.81707685 74.9476845,7.25949062 74.6449254,6.40540107 C74.3875234,5.67871081 74.3654117,4.93716684 74.5921976,4.19505156 C74.987939,2.89992043 76.131507,2.11895694 77.5097983,2.19893857 C78.7894379,2.27263593 79.7617825,3.17928485 79.994805,4.52411885 C80.0350595,4.75549428 80.0639747,4.9891549 80.0747469,5.22281551 C80.0900551,5.54788372 80.0662426,5.5718782 79.7464745,5.57530599 C79.1721391,5.58159027 78.5983708,5.57701988 78.0240354,5.57759118 M69.0322462,15.91896 C68.842313,15.0363056 68.4357992,14.71238 67.6732316,14.7917903 C67.0603427,14.8563469 66.6657351,15.2808209 66.6464584,15.91896 L69.0322462,15.91896 Z M70.4967162,17.6351373 C70.2291088,18.7274578 69.4750457,19.3913054 68.3728661,19.5466983 C67.891513,19.6141113 67.410727,19.584404 66.9441149,19.4387231 C65.911105,19.1165113 65.3033188,18.3909637 65.0969436,17.342633 C64.9654078,16.6782142 64.9852515,16.0040833 65.2409527,15.3568033 C65.704163,14.1787882 66.8392265,13.4806629 68.133607,13.5840677 C69.3514474,13.6811882 70.2648276,14.510712 70.5415064,15.7772782 C70.6021717,16.0520723 70.645261,16.3308654 70.6441902,16.6136575 C70.6429931,16.9392971 70.6333547,16.9575786 70.3050821,16.9592925 C69.4512331,16.9644343 68.5968173,16.9610063 67.7429683,16.9615776 C67.4475795,16.9615776 67.152191,16.9701472 66.8573693,16.9592925 C66.6413556,16.9518656 66.5903289,17.0489862 66.6192441,17.2449412 C66.6929495,17.7471116 66.9123648,18.1395929 67.4209323,18.2927006 C67.9975354,18.4669463 68.5622324,18.4121017 68.9585408,17.9333544 C69.1734204,17.6728429 69.3797956,17.6168557 69.6706486,17.6322808 C69.9320193,17.6454206 70.1945239,17.6351373 70.4967162,17.6351373 L70.4967162,17.6351373 Z M76.4919152,13.7665972 C76.5089241,13.9499837 76.4221785,14.0865237 76.3694507,14.2299194 C75.6766198,16.1209135 74.981521,18.0119079 74.2852883,19.9017596 C73.8390869,21.1140526 73.3157785,21.4619727 72.0344381,21.4031291 C71.3041875,21.3705651 71.3041875,21.3705651 71.3047544,20.6244507 C71.3047544,20.6090257 71.3041875,20.5930293 71.3047544,20.5776043 C71.312125,20.060009 71.2117722,20.0280163 71.8371344,20.08686 C71.9442907,20.0971433 72.0548488,20.1068553 72.1620052,20.0971433 C72.5724877,20.0617228 72.7992736,19.7960696 72.7947379,19.376166 C72.791903,19.1819248 72.7130949,19.0122496 72.647894,18.8368613 C72.0820631,17.3149251 71.5133975,15.7941315 70.9515354,14.2704814 C70.8937049,14.1133746 70.7854147,13.964266 70.8415442,13.7391749 C71.295683,13.7391749 71.7583262,13.7460305 72.2209695,13.7357471 C72.4290455,13.7311767 72.4727018,13.8608612 72.5237287,14.0191106 C72.7964387,14.8663446 73.0770862,15.7107221 73.3560329,16.5562422 C73.4563857,16.861315 73.5607073,17.1652453 73.6689976,17.4868856 C73.839654,17.3252085 73.8504262,17.1269683 73.9065557,16.9532939 C74.2195203,15.9878013 74.5330519,15.0217374 74.8244718,14.0499606 C74.8964763,13.8094446 75.0030657,13.7186082 75.2468605,13.7346045 C75.6596109,13.7625981 76.0774639,13.7060397 76.4919152,13.7665972 M56.7672105,16.635881 C56.7762819,16.2251183 56.726956,15.8240675 56.5398576,15.4538667 C56.3057011,14.9899734 55.9167634,14.7814498 55.406495,14.7842211 C54.8933918,14.7871628 54.5004854,15.0042558 54.2924093,15.4790039 C53.9777437,16.1982673 53.974909,16.9363835 54.281637,17.6590746 C54.4834764,18.1338227 54.8707133,18.3640555 55.3849504,18.3714825 C55.9133615,18.3789094 56.3147726,18.1658154 56.5528978,17.6796414 C56.7133489,17.3517167 56.7643756,16.9980836 56.7672105,16.635881 M58.3400208,16.5878921 C58.3411048,16.9660909 58.2861091,17.335149 58.1676135,17.6944951 C57.8603186,18.6308515 57.2213493,19.21586 56.2841565,19.4672308 C55.7047185,19.623195 55.115642,19.6203384 54.536204,19.4632317 C53.6154533,19.2135747 52.9838545,18.6331367 52.6799614,17.7196322 C52.4582782,17.0540708 52.4395684,16.3696565 52.6124927,15.6880987 C52.9322607,14.4226751 53.876257,13.6588505 55.196718,13.582868 C55.5720487,13.5611587 55.9417099,13.5988643 56.3034333,13.6931283 C57.4600414,13.9936308 58.2135377,14.9379853 58.3223949,16.2136923 C58.3331672,16.3382351 58.3348681,16.462778 58.3400208,16.5878921 M60.5704102,14.353491 C60.6798344,14.3626316 60.717821,14.2815075 60.766013,14.2278055 C61.4151877,13.5091135 62.4680413,13.4325596 63.311118,13.7667686 C63.7765961,13.9512976 64.0527079,14.3214984 64.1921812,14.7951039 C64.2851635,15.1116025 64.3220162,15.4372421 64.3214681,15.7691658 C64.3191814,16.8483466 64.3220162,17.9286698 64.3203153,19.0084219 C64.3191814,19.4026171 64.3157796,19.4037597 63.9058641,19.4066161 C63.6104753,19.4089013 63.3156537,19.3991893 63.0202651,19.4094727 C62.8201265,19.4157569 62.746988,19.3340614 62.7498228,19.1335359 C62.7566265,18.5548118 62.7520908,17.9755162 62.7515238,17.3962207 C62.7503898,16.9426106 62.7492559,16.4884293 62.7452871,16.0348192 C62.7447202,15.9411263 62.7384835,15.8468622 62.7277112,15.7537409 C62.6613764,15.1984397 62.4017065,14.9025077 61.9447329,14.856804 C61.2779823,14.7899621 60.8697676,15.0213376 60.7087496,15.5874933 C60.6237049,15.8879957 60.5896871,16.1999241 60.5913879,16.5158515 C60.5953567,17.3608003 60.5947897,18.2057491 60.5913879,19.0512693 C60.590254,19.3997606 60.5845843,19.4026171 60.2285304,19.4066161 C59.9337088,19.410044 59.6377532,19.3969041 59.3434984,19.4106153 C59.1274849,19.4203272 59.0328018,19.3517716 59.0424402,19.1203961 C59.0560473,18.7610501 59.045842,18.4005615 59.045842,18.0406442 C59.045842,16.7415139 59.0441411,15.4423837 59.0464089,14.1432535 C59.0469759,13.7427741 59.0515116,13.7422027 59.4591593,13.738775 C59.7233649,13.7370611 59.9875704,13.7473445 60.251209,13.7359185 C60.4485128,13.7267778 60.5363924,13.7959047 60.52562,14.0027144 C60.5193834,14.1209729 60.4967048,14.2489436 60.5704102,14.353491 M63.6710385,2.98727181 C63.8348913,2.9461384 63.8859182,2.84216227 63.9590566,2.76960751 C64.7505395,1.98235973 65.9853887,2.1194711 66.6062152,2.46853379 C67.0614879,2.72447502 67.2655953,3.15351934 67.3733185,3.64426377 C67.4209436,3.86021417 67.430582,4.07787848 67.430582,4.29725666 C67.4311489,5.42385506 67.4328499,6.54988216 67.430015,7.67648056 C67.4288811,8.01297473 67.4226446,8.0169738 67.1051442,8.02211548 C66.7944476,8.02668586 66.4831839,8.01183213 66.1736211,8.02611455 C65.9491031,8.03696921 65.8776655,7.9507033 65.8799334,7.72846864 C65.8890048,6.83667345 65.8867369,5.94544956 65.8816342,5.05365437 C65.8799334,4.80399742 65.8680271,4.55262658 65.8351432,4.30582612 C65.7693752,3.79965666 65.5170759,3.52600521 65.0952541,3.47515976 C64.468191,3.3986059 64.0673469,3.59684609 63.8717441,4.08759053 C63.7351056,4.42808375 63.729436,4.79028629 63.7266011,5.14963233 C63.7214985,5.9785848 63.7271681,6.80753728 63.7237663,7.63706106 C63.7220654,8.01640251 63.7175297,8.0181164 63.3393641,8.02211548 C63.0757256,8.02554326 62.81152,8.02554326 62.5478813,8.02211548 C62.182756,8.0181164 62.1787873,8.01640251 62.1782202,7.6267777 C62.1759524,6.46932924 62.1770863,5.31188078 62.1776533,4.15443232 C62.1776533,3.65340454 62.1855908,3.15294804 62.1742516,2.65249154 C62.1691489,2.43711243 62.2252785,2.33599281 62.4588679,2.35084654 C62.7378146,2.36741415 63.0178951,2.35084654 63.2968418,2.35541691 C63.6387215,2.3599873 63.6387215,2.36284378 63.6562974,2.72161852 C63.6596993,2.79931497 63.664802,2.87644012 63.6710385,2.98727181 M53.3482541,3.17699965 C53.6907009,2.67540057 54.139737,2.33719254 54.7384517,2.22921733 C54.814425,2.21493489 54.8915322,2.20179506 54.9680725,2.19836728 C55.3411353,2.18294225 55.3938631,2.23321641 55.3978318,2.61255787 C55.4012336,2.90963249 55.3961309,3.20727841 55.3972648,3.50435306 C55.3978318,3.64089312 55.3411353,3.70030804 55.201095,3.69230988 C55.0151306,3.68202652 54.8280323,3.67002928 54.6432017,3.68488302 C54.0354155,3.73287199 53.639674,4.06422447 53.447473,4.6406635 C53.3522229,4.92402699 53.3284103,5.21995903 53.3301112,5.51989015 C53.3335131,6.23972483 53.33408,6.9595595 53.3295442,7.67996549 C53.3272764,8.01188926 53.3210399,8.01645963 52.9961691,8.0216013 C52.6860393,8.02731428 52.3747756,8.01588833 52.0646458,8.0250291 C51.8571367,8.03188465 51.757918,7.9776114 51.7590519,7.73766652 C51.7675563,6.04719762 51.7686902,4.35672872 51.7584181,2.66625981 C51.756784,2.41146119 51.8497662,2.34062031 52.0839227,2.35090366 C52.3934855,2.36461481 52.7053161,2.3629009 53.0154458,2.35261755 C53.2019772,2.34576198 53.2632094,2.42402974 53.255272,2.60056062 C53.2467674,2.78280447 53.253571,2.96561963 53.253571,3.14786349 C53.285321,3.15757554 53.3165041,3.1672876 53.3482541,3.17699965" id="Shape" fill="#FFFFFF"></path>
                    </g>
                </g>
            </g>
        </g>
    </g>
</svg>