<?xml version="1.0" encoding="UTF-8"?>
<svg width="106px" height="47px" viewBox="0 0 106 47" version="1.1" xmlns="http://www.w3.org/2000/svg" xmlns:xlink="http://www.w3.org/1999/xlink">
    <!-- Generator: sketchtool 62 (101010) - https://sketch.com -->
    <title>308CE5E0-D049-4A53-995F-CE54997F254A</title>
    <desc>Created with sketchtool.</desc>
    <defs>
        <polygon id="path-1" points="0 0.0443119104 31.7912706 0.0443119104 31.7912706 18.1337972 0 18.1337972"></polygon>
        <polygon id="path-3" points="0 35.7778909 80.4670941 35.7778909 80.4670941 0 0 0"></polygon>
        <polygon id="path-5" points="0 35.7778909 80.4670941 35.7778909 80.4670941 0 0 0"></polygon>
        <polygon id="path-7" points="0 35.7778909 80.4670941 35.7778909 80.4670941 0 0 0"></polygon>
    </defs>
    <g id="Symbols" stroke="none" stroke-width="1" fill="none" fill-rule="evenodd">
        <g id="Bannière-mobile-Airtel-Copy" transform="translate(-169.000000, -70.000000)">
            <g id="Group-2" transform="translate(47.000000, 70.000000)">
                <g id="M-Vola" transform="translate(122.000000, 0.000000)">
                    <rect id="Rectangle" fill="#FFDE00" fill-rule="nonzero" x="0" y="0" width="106" height="47" rx="2"></rect>
                    <g id="Group" transform="translate(13.361345, 5.320755)">
                        <g transform="translate(0.000000, 7.194436)" id="Clipped">
                            <g>
                                <mask id="mask-2" fill="white">
                                    <use xlink:href="#path-1"></use>
                                </mask>
                                <g id="m-vola-a"></g>
                                <path d="M31.7876525,2.97034688 C31.8094359,3.22734587 31.7110169,3.60975418 31.7118043,3.98263448 C31.7186281,8.03075475 31.719153,12.0791325 31.7144288,16.1275104 C31.7128542,17.5077855 31.1887407,18.0078776 29.747888,18.0372342 C28.1739728,18.0694236 27.6309629,17.6120786 27.622302,16.1517167 C27.6044554,13.0406898 27.6162657,9.92992057 27.6157408,6.81915132 L27.6157408,5.51484285 C27.0155168,5.35157897 26.9436052,5.72471676 26.7803612,5.93948346 C24.31254,9.18519003 21.8562666,12.4391371 19.3842461,15.6814961 C18.9428046,16.2606451 18.474593,16.827176 17.9617648,17.3455516 C17.1628659,18.1528581 16.1335353,18.1155185 15.1556451,17.8255577 C14.2000632,17.5417773 14.2709248,16.6551566 14.2680378,15.892915 C14.2554402,12.4957902 14.2625264,9.09866535 14.2625264,5.60085253 C13.5381632,5.6775917 13.3796432,6.10506496 13.1473746,6.41459682 C10.5181464,9.91369723 7.86687232,13.3976043 5.29564564,16.9368769 C4.67600023,17.7895058 4.0537303,18.2360351 2.95642514,18.1144884 C2.06829295,18.0161181 1.15968962,18.0944023 -7.87351231e-05,18.0944023 C0.698826708,17.1717297 1.25128482,16.4313769 1.8150283,15.6997795 C5.14316195,11.3815271 8.469196,7.061472 11.8083525,2.75120246 C12.3849561,2.00672945 12.9502744,1.24217034 13.7604587,0.704996113 C14.7677435,0.0372622777 15.878696,-0.189350054 16.9736391,0.330828253 C18.0549348,0.84405368 18.402944,1.82904478 18.3829978,2.99661331 C18.3436303,5.2972435 18.37145,7.59864624 18.37145,9.89979149 L18.37145,11.4791249 C21.3287412,7.76062255 23.854039,4.18323788 26.8252402,0.816242166 C26.8252402,0.816242166 26.2893164,3.35584537 28.1876203,4.06220631 C30.8058256,5.3466862 31.7876525,2.97034688 31.7876525,2.97034688" id="Path" fill="#05713C" fill-rule="nonzero" mask="url(#mask-2)"></path>
                            </g>
                        </g>
                        <path d="M41.287255,19.8293 C42.6485853,18.532717 43.4823903,17.2948472 44.3718347,16.105905 C46.2732879,13.5644992 48.2012487,11.0390592 50.0084821,8.43456248 C50.6541102,7.50442187 51.3401556,7.1137731 52.4610813,7.23351712 C53.2775644,7.32055686 54.1116319,7.25051304 54.9139428,7.25051304 C55.1233783,7.59609685 54.8533168,7.76528355 54.708969,7.95120867 C50.7803489,12.9977108 46.8506789,18.0434404 42.9086737,23.0796418 C42.0425874,24.1859221 41.0234924,25.077693 39.4983931,25.2144331 C37.8948211,25.3578684 37.2583788,24.891768 37.2512927,23.3479715 C37.2276721,18.2785507 37.2531298,13.2091297 37.2317884,8.13945141 C37.2292469,7.48716842 37.4087629,7.26982659 38.1110801,7.2515431 C40.6069836,7.18690708 41.277282,7.78794479 41.2848931,10.2989639 C41.2946037,13.3605481 41.287255,16.4221321 41.287255,19.8293 M77.7286258,14.1281184 C73.8013178,14.1181285 69.580328,18.3611869 69.6553887,22.2432107 C69.6837333,23.7046027 70.5558561,24.3980879 72.0560225,24.1192003 C73.5493654,23.8418577 74.5899813,22.87412 75.5694462,21.8350509 C77.237581,20.0648997 77.9320248,17.810622 78.7632052,15.6276757 C79.2912555,14.2409628 79.2062216,14.1320342 77.7286258,14.1281184 M76.3980022,22.0794317 C75.6843995,22.7471656 75.0637044,23.3999636 74.366636,23.9626316 C73.4388738,24.7114825 72.3546912,25.1307153 71.127998,25.107024 C69.5624813,25.0766373 68.6362938,24.1905317 68.5478479,22.6518853 C68.2470797,17.4310463 74.6886627,12.1664298 79.8765199,13.3605223 C80.7061257,13.5515977 80.4720198,13.9450791 80.2946034,14.438476 C79.1183008,17.7135391 77.5430733,20.861133 76.9562342,24.3246964 C76.8811735,24.7681356 76.6370945,24.8948324 76.237645,24.8474498 C75.6214114,24.7745734 75.9227045,24.3401472 75.9646966,24.0666674 C76.0639027,23.4210798 76.4460306,22.8272525 76.3980022,22.0794317 M55.7366199,24.0527616 C53.5787526,24.9025578 51.7518353,23.79293 51.8192851,21.5376222 C51.9069435,18.6125206 53.3081662,16.3505175 55.8599715,14.796163 C56.4659696,14.4271454 57.1446663,14.2878302 57.8551196,14.2862851 C59.45423,14.2968433 60.3846167,15.2864696 60.4381565,17.0313846 C60.517679,19.6294434 58.2073281,23.0796162 55.7366199,24.0527616 M56.971974,13.4954597 C53.5968616,14.310234 50.4723896,18.4309732 50.6395705,21.8474116 C50.753474,24.1781709 52.2205717,25.4165559 54.595748,25.1878834 C58.0065536,24.8592955 61.5121037,20.7143499 61.5349367,16.9824569 C61.5514712,14.2497181 59.7022456,12.8362238 56.971974,13.4954597 M29.6854772,0.00110731026 C33.1338131,0.153298091 35.7003157,1.69117177 37.3899715,4.65387049 C37.7482163,5.28143215 37.5917958,5.60074952 36.992359,5.95302869 C36.1929352,6.42273426 36.2567106,5.70736032 36.0764072,5.3798025 C34.1678678,1.91186129 30.2943622,0.558367634 26.6216311,2.14053373 C26.0463398,2.38826221 25.7605314,2.4724693 25.4264319,1.82894178 C25.041942,1.08884651 25.5363988,0.976312881 26.0090719,0.771074209 C27.1769762,0.264286632 28.392384,-0.0197513247 29.6854772,0.00110731026 M69.9937922,8.32354819 C67.9264704,13.7251621 65.8735832,19.0837712 63.8283072,24.4452129 C63.6553524,24.8989527 63.3800419,25.2306307 62.8758746,25.0356926 C62.2575415,24.7967196 62.7601341,24.3751692 62.8611775,24.1073546 C64.7689295,19.0557023 66.7110625,14.0166679 68.6293126,8.96862077 C68.8516081,8.38303393 69.1187826,7.99367274 69.9937922,8.32354819" id="Shape" fill="#05713C" fill-rule="nonzero"></path>
                        <path d="M33.6027595,8.24495491 C33.2201069,7.52288562 33.1379599,6.8353232 32.7067538,6.28475824 C31.5742803,4.83984711 29.8583796,4.35366066 27.9603382,5.16585986 C27.1582897,5.50912603 27.1294202,4.98791768 26.8648702,4.60396428 C26.5134491,4.09485907 26.789022,3.87519962 27.2362375,3.6431795 C29.9085076,2.25749659 33.5767769,3.66841587 34.7221105,6.4511123 C35.1995079,7.61121293 34.1625663,7.65885301 33.6027595,8.24495491 M34.3539713,31.8241998 C34.3151287,31.1054781 34.2681501,30.2415186 34.2760237,29.5990212 L34.252403,29.5990212 C34.0734118,30.203149 33.8553155,30.845389 33.5902407,31.5566427 L32.6627408,34.0571037 L32.1486006,34.0571037 L31.2987861,31.6024803 C31.0494582,30.8760332 30.8392355,30.2106169 30.690951,29.5990212 L30.6754665,29.5990212 C30.6599819,30.2415186 30.6208767,31.1054781 30.5741605,31.8777627 L30.434012,34.0874904 L29.7870717,34.0874904 L30.1534525,28.9336049 L31.0184891,28.9336049 L31.9144948,31.4265981 C32.1328535,32.0613702 32.3121072,32.6271284 32.4446447,33.1622426 L32.4677402,33.1622426 C32.6002777,32.6423219 32.7874048,32.0763059 33.0212483,31.4265981 L33.9563589,28.9336049 L34.8213955,28.9336049 L35.1486712,34.0874904 L34.4865089,34.0874904 L34.3539713,31.8241998 Z M36.6386284,32.2446944 C36.6386284,33.0550909 37.1139261,33.6669442 37.783962,33.6669442 C38.4385134,33.6669442 38.929558,33.0630739 38.929558,32.2295011 C38.929558,31.6024544 38.6101559,30.8072512 37.7997091,30.8072512 C36.9892621,30.8072512 36.6386284,31.5414236 36.6386284,32.2446944 M39.631088,32.2065823 C39.631088,33.5752692 38.6647456,34.1716718 37.7529929,34.1716718 C36.7317982,34.1716718 35.9447095,33.4377568 35.9447095,32.2678706 C35.9447095,31.0289708 36.7709034,30.3025237 37.8151937,30.3025237 C38.8983264,30.3025237 39.631088,31.0748082 39.631088,32.2065823 M41.1752412,32.6040551 C41.1752412,32.6882623 41.1909883,32.7722119 41.2064728,32.8486936 C41.3390103,33.3153089 41.7363603,33.6364289 42.235016,33.6364289 C42.952293,33.6364289 43.380612,33.0629452 43.380612,32.2141789 C43.380612,31.4722811 42.9911356,30.838024 42.2583741,30.838024 C41.7909499,30.838024 41.3544948,31.1511611 41.2140839,31.663614 C41.1985994,31.7403531 41.1752412,31.8317707 41.1752412,31.9388965 L41.1752412,32.6040551 Z M40.4661002,34.0875933 C40.4815849,33.8352296 40.4973318,33.4605468 40.4973318,33.1317015 L40.4973318,28.658683 L41.1752412,28.658683 L41.1752412,30.9830044 L41.1909883,30.9830044 C41.4321802,30.5702094 41.8688977,30.302395 42.4767328,30.302395 C43.4118436,30.302395 44.0742685,31.0672116 44.0666574,32.1910027 C44.0666574,33.5141097 43.2168429,34.1718005 42.375427,34.1718005 C41.8297926,34.1718005 41.3933375,33.9652743 41.1130405,33.4759976 L41.0896825,33.4759976 L41.0584509,34.0875933 L40.4661002,34.0875933 Z" id="Shape" fill="#05713C" fill-rule="nonzero"></path>
                        <g id="Clipped">
                            <mask id="mask-4" fill="white">
                                <use xlink:href="#path-3"></use>
                            </mask>
                            <g id="m-vola-c"></g>
                            <path d="M44.9637156,34.0873873 L45.8980993,34.0873873 L45.8980993,30.3866536 L44.9637156,30.3866536 L44.9637156,34.0873873 Z M46.0043443,29.3465544 C46.0154338,29.5762569 45.7814802,29.7596069 45.4098015,29.7596069 C45.0803347,29.7596069 44.8467387,29.5762569 44.8467387,29.3465544 C44.8467387,29.1096416 45.0914242,28.9262915 45.4312651,28.9262915 C45.7814802,28.9262915 46.0043443,29.1096416 46.0043443,29.3465544 L46.0043443,29.3465544 Z" id="Shape" fill="#05713C" fill-rule="nonzero" mask="url(#mask-4)"></path>
                        </g>
                        <g id="Clipped">
                            <mask id="mask-6" fill="white">
                                <use xlink:href="#path-5"></use>
                            </mask>
                            <g id="m-vola-e"></g>
                            <polygon id="Path" fill="#05713C" fill-rule="nonzero" mask="url(#mask-6)" points="46.7558874 34.0872211 47.4414134 34.0872211 47.4414134 28.658444 46.7558874 28.658444"></polygon>
                        </g>
                        <g id="Clipped">
                            <mask id="mask-8" fill="white">
                                <use xlink:href="#path-7"></use>
                            </mask>
                            <g id="m-vola-g"></g>
                            <path d="M50.9881571,31.8777627 C50.9960306,31.4495168 50.8089035,30.7843582 50.0375617,30.7843582 C49.3439053,30.7843582 49.0399877,31.4111474 48.9853981,31.8777627 L50.9881571,31.8777627 Z M48.977787,32.3593138 C48.9930091,33.2693683 49.5853597,33.6440512 50.271405,33.6440512 C50.7624497,33.6440512 51.0584938,33.5598442 51.3154328,33.4529759 L51.4324855,33.9345272 C51.1907688,34.0416529 50.7776719,34.1639721 50.1777102,34.1639721 C49.0166296,34.1639721 48.3229732,33.4146063 48.3229732,32.298283 C48.3229732,31.1819598 48.9930091,30.3025494 50.0921514,30.3025494 C51.3233063,30.3025494 51.650582,31.3655673 51.650582,32.0459193 C51.650582,32.1834318 51.6350974,32.2908151 51.6274862,32.3593138 L48.977787,32.3593138 Z M58.6033394,31.8241998 C58.5644969,31.1054781 58.5175182,30.2415186 58.5253916,29.5990212 L58.5017711,29.5990212 C58.32278,30.203149 58.1046836,30.845389 57.8396088,31.5566427 L56.912109,34.0571037 L56.3979687,34.0571037 L55.5481542,31.6024803 C55.2988264,30.8760332 55.0883412,30.2106169 54.9405815,29.5990212 L54.9248346,29.5990212 C54.90935,30.2415186 54.8702448,31.1054781 54.8237911,31.8777627 L54.6831177,34.0874904 L54.0367023,34.0874904 L54.4028207,28.9336049 L55.2678572,28.9336049 L56.1638629,31.4265981 C56.3822216,32.0613702 56.5614752,32.6271284 56.6940127,33.1622426 L56.7171084,33.1622426 C56.8496458,32.6423219 57.036773,32.0763059 57.2706162,31.4265981 L58.2057271,28.9336049 L59.0707636,28.9336049 L59.3980393,34.0874904 L58.735877,34.0874904 L58.6033394,31.8241998 Z M60.8879703,32.2446944 C60.8879703,33.0550909 61.3632679,33.6669442 62.0333038,33.6669442 C62.6878552,33.6669442 63.1788998,33.0630739 63.1788998,32.2295011 C63.1788998,31.6024544 62.8594977,30.8072512 62.0490509,30.8072512 C61.2386041,30.8072512 60.8879703,31.5414236 60.8879703,32.2446944 M63.8804299,32.2065823 C63.8804299,33.5752692 62.9140875,34.1716718 62.0023347,34.1716718 C60.9811403,34.1716718 60.1940515,33.4377568 60.1940515,32.2678706 C60.1940515,31.0289708 61.0205078,30.3025237 62.0645355,30.3025237 C63.1476683,30.3025237 63.8804299,31.0748082 63.8804299,32.2065823 M64.7465687,31.3884089 C64.7465687,31.006258 64.7386952,30.6926059 64.7153371,30.3866793 L65.3231723,30.3866793 L65.3622774,30.9982751 L65.3777619,30.9982751 C65.5646266,30.6465109 66.0010816,30.3024722 66.6246639,30.3024722 C67.1469401,30.3024722 67.9571246,30.6083988 67.9571246,31.8776854 L67.9571246,34.0874131 L67.2713417,34.0874131 L67.2713417,31.9541671 C67.2713417,31.3577647 67.0456343,30.8607625 66.398694,30.8607625 C65.946492,30.8607625 65.5958582,31.1741571 65.4790679,31.54884 C65.4478363,31.6330471 65.4320892,31.7478983 65.4320892,31.8624921 L65.4320892,34.0874131 L64.7465687,34.0874131 L64.7465687,31.3884089 Z M71.4649318,31.8777627 C71.4728053,31.4495168 71.2856782,30.7843582 70.5143364,30.7843582 C69.8206799,30.7843582 69.5167623,31.4111474 69.4621727,31.8777627 L71.4649318,31.8777627 Z M69.4545616,32.3593138 C69.4697838,33.2693683 70.0621343,33.6440512 70.7481797,33.6440512 C71.2392245,33.6440512 71.5352684,33.5598442 71.7922074,33.4529759 L71.9092603,33.9345272 C71.6675435,34.0416529 71.2544466,34.1639721 70.6544849,34.1639721 C69.4934043,34.1639721 68.7997478,33.4146063 68.7997478,32.298283 C68.7997478,31.1819598 69.4697838,30.3025494 70.5689261,30.3025494 C71.800081,30.3025494 72.1273566,31.3655673 72.1273566,32.0459193 C72.1273566,32.1834318 72.111872,32.2908151 72.104261,32.3593138 L69.4545616,32.3593138 Z M73.22726,30.3867565 L74.0531915,32.5735654 C74.1390128,32.8182039 74.2324451,33.1086796 74.2946459,33.3306567 L74.3103929,33.3306567 C74.3807296,33.1086796 74.458415,32.8259293 74.5521097,32.5583721 L75.3000933,30.3867565 L76.024719,30.3867565 L74.9961758,33.0247301 C74.5051311,34.2940166 74.1702444,34.943982 73.7025578,35.3415837 C73.3674086,35.6320594 73.0322593,35.7466532 72.8608793,35.7775548 L72.6894992,35.2115391 C72.8608793,35.1579762 73.0868491,35.0508503 73.2894608,34.8826938 C73.476588,34.7377132 73.7104313,34.4776242 73.8663268,34.1335855 C73.8975584,34.0645717 73.9209165,34.0110087 73.9209165,33.9728967 C73.9209165,33.9345272 73.9051695,33.8809642 73.8739379,33.7970146 L72.479014,30.3867565 L73.22726,30.3867565 Z M27.5134639,7.76386723 C27.5134639,7.76386723 30.3571141,7.76386723 31.7263178,9.52062787 C31.5158326,10.1407216 30.3571141,11.0708622 28.9879102,10.5540316 C26.9869883,9.77891434 27.5134639,7.76386723 27.5134639,7.76386723" id="Shape" fill="#05713C" fill-rule="nonzero" mask="url(#mask-8)"></path>
                        </g>
                    </g>
                </g>
            </g>
        </g>
    </g>
</svg>